<svg width="734" height="274" viewBox="0 0 734 274" fill="none" xmlns="http://www.w3.org/2000/svg">
<path fill-rule="evenodd" clip-rule="evenodd" d="M560.87 198.965V134.035C560.87 121.795 586.94 121.175 586.94 134.515V198.955C586.94 214.015 610.59 213.575 610.59 198.955V134.275C610.59 111.005 596.06 105.435 580.32 105.555C572.74 105.615 563.17 109.955 560.86 117.625V117.145C560.86 102.345 537.21 102.215 537.21 117.145V198.965C537.21 213.895 560.86 213.765 560.86 198.965H560.87ZM644.14 198.965V127.525H662.24V105.805H644.14V74.905C644.14 60.395 620 60.395 620 74.905V198.965C620 213.795 644.14 213.795 644.14 198.965ZM380.09 198.965V117.145C380.09 102.245 356.2 102.325 356.2 117.145V198.965C356.2 213.785 380.09 213.865 380.09 198.965ZM414.12 198.965V74.905C414.12 60.405 390.23 60.325 390.23 74.905V198.965C390.23 213.865 414.12 213.785 414.12 198.965ZM446.46 198.965V74.905C446.46 60.605 422.81 60.165 422.81 74.905V198.965C422.81 214.025 446.46 213.585 446.46 198.965ZM368.27 65.255C375.03 65.255 380.58 72.015 380.58 80.705C380.58 88.915 375.03 95.665 368.27 95.665C361.51 95.665 355.72 88.905 355.72 80.705C355.72 72.015 361.27 65.255 368.27 65.255ZM303.1 162.525C299 162.525 295.62 165.905 295.62 170.005V183.765C295.62 187.865 299 191.485 303.1 191.485H316.86C321.21 191.485 324.34 187.865 324.34 183.765V170.005C324.34 165.905 321.2 162.525 316.86 162.525H303.1ZM275.1 195.595V164.455C275.1 154.165 281.06 142.495 291.99 142.495H308.4C316.29 142.495 322.17 147.915 324.81 155.045C324.81 148.045 324.97 141.045 324.81 134.045C324.73 130.655 321.75 127.045 315.88 127.045H282.81V105.805H327.44C338.51 105.805 345.57 114.975 345.57 127.525V210.315H327.23V197.525C323.97 203.835 317.41 210.315 309.85 210.315H290.3C282.38 210.315 275.09 204.495 275.09 195.595H275.1ZM196.18 81.185L224.66 200.415C228 214.405 250.11 213.525 253.38 200.415L283.79 78.765C286.91 66.275 264.89 57.955 261.58 72.735L238.65 175.315L219.34 75.875C215.72 57.235 192.43 65.545 196.17 81.185H196.18ZM483.89 162.525C479.79 162.525 476.41 165.905 476.41 170.005V183.765C476.41 187.865 479.79 191.485 483.89 191.485H497.65C501.99 191.485 505.13 187.865 505.13 183.765V170.005C505.13 165.905 501.99 162.525 497.65 162.525H483.89ZM455.89 195.595V164.455C455.89 154.165 461.85 142.495 472.79 142.495H489.2C497.09 142.495 502.97 147.915 505.61 155.045C505.61 148.045 505.77 141.045 505.61 134.045C505.53 130.655 502.55 127.045 496.68 127.045H463.62V105.805H508.25C519.32 105.805 526.37 114.975 526.37 127.525V210.315H508.03V197.525C504.76 203.835 498.21 210.315 490.65 210.315H471.1C463.18 210.315 455.89 204.495 455.89 195.595Z" fill="#009982"/>
<path fill-rule="evenodd" clip-rule="evenodd" d="M85.66 64.925H172.5C179.46 64.925 185.16 70.625 185.16 77.585V196.775C185.16 203.735 179.46 209.435 172.5 209.435H85.66C78.7 209.435 73 203.735 73 196.775V77.585C73 70.625 78.7 64.925 85.66 64.925ZM129.08 79.345C137.18 79.345 144.75 82.635 151.18 88.325C157.8 80.255 166.14 71.535 177.19 71.605C181.47 83.575 171.59 97.8651 164.48 106.975C168.78 116.475 171.28 127.815 171.28 139.995C171.28 173.485 152.39 200.645 129.09 200.645C105.79 200.645 86.89 173.485 86.89 139.995C86.89 127.815 89.39 116.475 93.69 106.975L93.56 106.805C86.48 97.335 76.99 83.935 80.97 71.605C92.27 71.325 100.52 80.425 106.98 88.315C113.41 82.625 120.97 79.335 129.07 79.335L129.08 79.345Z" fill="#009982"/>
<path fill-rule="evenodd" clip-rule="evenodd" d="M149.5 116.485C157.77 109.275 171.44 89.085 171.71 80.285C163 82.775 150.79 108.375 149.5 116.485ZM134.54 146.655H135.5C134.36 139.765 138.95 131.325 143.95 129.905L143.47 128.795C136.51 131.205 133.2 140.985 134.54 146.655ZM138.16 146.175C141.49 148.125 148.83 134.215 145.4 132.415C141.97 130.625 134.83 144.215 138.16 146.175ZM131.64 156.555C133.67 158.585 135.47 161.795 135.02 164.765C134.78 165.975 133.33 165.735 132.12 165.975C131.64 165.975 131.12 166.205 130.91 166.695C130.51 167.625 130.59 170.005 130.77 171.285C130.9 172.175 131.79 172.205 132.12 173.455C132.69 175.625 133.72 176.375 135.98 176.355C140.67 176.315 143.69 173.265 144.19 168.395C144.65 163.805 141.91 161.585 138.15 159.705C142.18 155.185 158.68 132.105 145.15 123.985C131.97 130.575 132.03 138.605 131.63 156.565L131.64 156.555ZM133.33 180.335C132.97 177.995 131.79 175.715 129.08 175.715C126.37 175.715 125.19 177.995 124.83 180.335H133.33ZM148.05 172.965H164.5L165.34 171.035H144.92V169.345H166.02L166.65 167.655H147.09V165.725H167.3C167.56 164.915 167.81 164.115 168.04 163.315H153.36C156.28 158.425 156.8 148.525 152.89 141.845C156.03 135.385 155.05 124.935 149.98 118.905C158.33 114.365 180.62 85.285 175.81 73.525C162.77 72.865 143.33 99.525 139.61 110.695C136.24 109.565 132.63 109.055 129.08 109.055C125.53 109.055 121.93 109.565 118.55 110.695C114.83 99.525 95.3799 72.865 82.3499 73.525C77.5399 85.275 99.8299 114.365 108.18 118.905C103.11 124.935 102.12 135.385 105.27 141.845C101.36 148.525 101.88 158.425 104.8 163.315H90.1199C90.3499 164.125 90.5999 164.935 90.8599 165.725H111.07V167.655H91.5199L92.1399 169.345H113.24V171.035H92.8199L93.6499 172.965H110.1C116.13 172.965 118.57 185.365 129.07 185.365C139.57 185.365 142.02 172.965 148.04 172.965H148.05ZM108.66 116.485C100.39 109.275 86.7199 89.085 86.4499 80.285C95.1599 82.775 107.37 108.375 108.66 116.485ZM123.62 146.655H122.66C123.8 139.765 119.21 131.325 114.21 129.905L114.69 128.795C121.65 131.205 124.96 140.985 123.62 146.655ZM120 146.175C116.67 148.125 109.33 134.215 112.76 132.415C116.19 130.625 123.33 144.215 120 146.175ZM126.52 156.555C124.49 158.585 122.69 161.795 123.14 164.765C123.38 165.975 124.83 165.735 126.04 165.975C126.52 165.975 127.04 166.205 127.25 166.695C127.65 167.625 127.57 170.005 127.39 171.285C127.26 172.175 126.37 172.205 126.04 173.455C125.47 175.625 124.44 176.375 122.18 176.355C117.49 176.315 114.47 173.265 113.97 168.395C113.5 163.805 116.25 161.585 120 159.705C115.97 155.185 99.4699 132.105 113 123.985C126.19 130.575 126.12 138.605 126.52 156.565V156.555Z" fill="#1D1D1B"/>
</svg>
